<mxfile host="app.diagrams.net" modified="2020-11-30T15:37:01.736Z" agent="5.0 (Windows NT 10.0; Win64; x64) AppleWebKit/537.36 (KHTML, like Gecko) Chrome/86.0.4240.198 Safari/537.36" etag="krhTLTLsy1pun2G_wvSA" version="13.10.4" type="github">
  <diagram id="z2BdM7ewY1zwX1X3vZBE" name="Page-1">
    <mxGraphModel dx="1422" dy="738" grid="1" gridSize="10" guides="1" tooltips="1" connect="1" arrows="1" fold="1" page="1" pageScale="1" pageWidth="827" pageHeight="1169" background="#ffffff" math="0" shadow="0">
      <root>
        <mxCell id="0" />
        <mxCell id="1" parent="0" />
        <mxCell id="QmPhXtLcvz4O44ZYZ-wm-27" value="" style="edgeStyle=orthogonalEdgeStyle;rounded=0;orthogonalLoop=1;jettySize=auto;html=1;" parent="1" source="QmPhXtLcvz4O44ZYZ-wm-2" target="QmPhXtLcvz4O44ZYZ-wm-17" edge="1">
          <mxGeometry relative="1" as="geometry" />
        </mxCell>
        <mxCell id="QmPhXtLcvz4O44ZYZ-wm-2" value="read_csv" style="rounded=0;whiteSpace=wrap;html=1;" parent="1" vertex="1">
          <mxGeometry x="180" y="120" width="120" height="40" as="geometry" />
        </mxCell>
        <mxCell id="QmPhXtLcvz4O44ZYZ-wm-34" value="" style="edgeStyle=orthogonalEdgeStyle;rounded=0;orthogonalLoop=1;jettySize=auto;html=1;entryX=0.5;entryY=0;entryDx=0;entryDy=0;" parent="1" source="QmPhXtLcvz4O44ZYZ-wm-9" target="QmPhXtLcvz4O44ZYZ-wm-2" edge="1">
          <mxGeometry relative="1" as="geometry">
            <Array as="points">
              <mxPoint x="240" y="70" />
              <mxPoint x="240" y="70" />
            </Array>
          </mxGeometry>
        </mxCell>
        <mxCell id="QmPhXtLcvz4O44ZYZ-wm-9" value="Begin" style="rounded=1;whiteSpace=wrap;html=1;" parent="1" vertex="1">
          <mxGeometry x="200" y="60" width="80" height="30" as="geometry" />
        </mxCell>
        <mxCell id="QmPhXtLcvz4O44ZYZ-wm-16" style="edgeStyle=orthogonalEdgeStyle;rounded=0;orthogonalLoop=1;jettySize=auto;html=1;exitX=1;exitY=0.5;exitDx=0;exitDy=0;entryX=0.5;entryY=0;entryDx=0;entryDy=0;" parent="1" source="QmPhXtLcvz4O44ZYZ-wm-46" target="QmPhXtLcvz4O44ZYZ-wm-66" edge="1">
          <mxGeometry relative="1" as="geometry">
            <mxPoint x="295" y="920" as="sourcePoint" />
            <mxPoint x="390" y="1000" as="targetPoint" />
            <Array as="points">
              <mxPoint x="450" y="905" />
            </Array>
          </mxGeometry>
        </mxCell>
        <mxCell id="QmPhXtLcvz4O44ZYZ-wm-18" value="No" style="edgeLabel;html=1;align=center;verticalAlign=middle;resizable=0;points=[];" parent="QmPhXtLcvz4O44ZYZ-wm-16" vertex="1" connectable="0">
          <mxGeometry x="-0.1429" y="2" relative="1" as="geometry">
            <mxPoint as="offset" />
          </mxGeometry>
        </mxCell>
        <mxCell id="QmPhXtLcvz4O44ZYZ-wm-21" value="" style="edgeStyle=orthogonalEdgeStyle;rounded=0;orthogonalLoop=1;jettySize=auto;html=1;" parent="1" source="QmPhXtLcvz4O44ZYZ-wm-17" target="QmPhXtLcvz4O44ZYZ-wm-20" edge="1">
          <mxGeometry relative="1" as="geometry">
            <Array as="points">
              <mxPoint x="340" y="235" />
              <mxPoint x="340" y="235" />
            </Array>
          </mxGeometry>
        </mxCell>
        <mxCell id="QmPhXtLcvz4O44ZYZ-wm-25" value="No" style="edgeLabel;html=1;align=center;verticalAlign=middle;resizable=0;points=[];" parent="QmPhXtLcvz4O44ZYZ-wm-21" vertex="1" connectable="0">
          <mxGeometry x="0.1447" y="-1" relative="1" as="geometry">
            <mxPoint as="offset" />
          </mxGeometry>
        </mxCell>
        <mxCell id="QmPhXtLcvz4O44ZYZ-wm-28" style="edgeStyle=orthogonalEdgeStyle;rounded=0;orthogonalLoop=1;jettySize=auto;html=1;entryX=0.5;entryY=0;entryDx=0;entryDy=0;" parent="1" source="QmPhXtLcvz4O44ZYZ-wm-17" target="QmPhXtLcvz4O44ZYZ-wm-29" edge="1">
          <mxGeometry relative="1" as="geometry">
            <mxPoint x="240" y="290" as="targetPoint" />
            <Array as="points">
              <mxPoint x="240" y="270" />
              <mxPoint x="240" y="270" />
            </Array>
          </mxGeometry>
        </mxCell>
        <mxCell id="QmPhXtLcvz4O44ZYZ-wm-38" value="Yes" style="edgeLabel;html=1;align=center;verticalAlign=middle;resizable=0;points=[];" parent="QmPhXtLcvz4O44ZYZ-wm-28" vertex="1" connectable="0">
          <mxGeometry x="-0.1795" y="1" relative="1" as="geometry">
            <mxPoint as="offset" />
          </mxGeometry>
        </mxCell>
        <mxCell id="QmPhXtLcvz4O44ZYZ-wm-17" value="finish_read?" style="rhombus;whiteSpace=wrap;html=1;" parent="1" vertex="1">
          <mxGeometry x="195" y="205" width="90" height="60" as="geometry" />
        </mxCell>
        <mxCell id="QmPhXtLcvz4O44ZYZ-wm-26" style="edgeStyle=orthogonalEdgeStyle;rounded=0;orthogonalLoop=1;jettySize=auto;html=1;entryX=0.5;entryY=0;entryDx=0;entryDy=0;" parent="1" source="QmPhXtLcvz4O44ZYZ-wm-20" target="QmPhXtLcvz4O44ZYZ-wm-17" edge="1">
          <mxGeometry relative="1" as="geometry">
            <Array as="points">
              <mxPoint x="390" y="185" />
              <mxPoint x="240" y="185" />
            </Array>
          </mxGeometry>
        </mxCell>
        <mxCell id="QmPhXtLcvz4O44ZYZ-wm-20" value="question add key&lt;br&gt;answer add value" style="rounded=0;whiteSpace=wrap;html=1;" parent="1" vertex="1">
          <mxGeometry x="340" y="210" width="100" height="50" as="geometry" />
        </mxCell>
        <mxCell id="QmPhXtLcvz4O44ZYZ-wm-37" value="" style="edgeStyle=orthogonalEdgeStyle;rounded=0;orthogonalLoop=1;jettySize=auto;html=1;" parent="1" source="QmPhXtLcvz4O44ZYZ-wm-29" target="QmPhXtLcvz4O44ZYZ-wm-30" edge="1">
          <mxGeometry relative="1" as="geometry" />
        </mxCell>
        <mxCell id="QmPhXtLcvz4O44ZYZ-wm-29" value="get dictionary&amp;nbsp;&lt;br&gt;question is key&lt;br&gt;answer is value" style="rounded=0;whiteSpace=wrap;html=1;" parent="1" vertex="1">
          <mxGeometry x="180" y="310" width="120" height="60" as="geometry" />
        </mxCell>
        <mxCell id="QmPhXtLcvz4O44ZYZ-wm-48" value="" style="edgeStyle=orthogonalEdgeStyle;rounded=0;orthogonalLoop=1;jettySize=auto;html=1;" parent="1" source="QmPhXtLcvz4O44ZYZ-wm-30" target="QmPhXtLcvz4O44ZYZ-wm-39" edge="1">
          <mxGeometry relative="1" as="geometry" />
        </mxCell>
        <mxCell id="QmPhXtLcvz4O44ZYZ-wm-30" value="Use dictionary to modeling CountVectorizer and fit it" style="rounded=0;whiteSpace=wrap;html=1;" parent="1" vertex="1">
          <mxGeometry x="180" y="400" width="120" height="60" as="geometry" />
        </mxCell>
        <mxCell id="QmPhXtLcvz4O44ZYZ-wm-56" style="edgeStyle=orthogonalEdgeStyle;rounded=0;orthogonalLoop=1;jettySize=auto;html=1;exitX=0.5;exitY=1;exitDx=0;exitDy=0;entryX=0.5;entryY=0;entryDx=0;entryDy=0;" parent="1" source="QmPhXtLcvz4O44ZYZ-wm-39" target="QmPhXtLcvz4O44ZYZ-wm-53" edge="1">
          <mxGeometry relative="1" as="geometry" />
        </mxCell>
        <mxCell id="QmPhXtLcvz4O44ZYZ-wm-39" value="get_data&amp;nbsp;" style="rounded=0;whiteSpace=wrap;html=1;" parent="1" vertex="1">
          <mxGeometry x="195" y="490" width="90" height="40" as="geometry" />
        </mxCell>
        <mxCell id="QmPhXtLcvz4O44ZYZ-wm-43" value="End" style="rounded=1;whiteSpace=wrap;html=1;" parent="1" vertex="1">
          <mxGeometry x="100" y="1040" width="60" height="30" as="geometry" />
        </mxCell>
        <mxCell id="QmPhXtLcvz4O44ZYZ-wm-44" value="" style="edgeStyle=orthogonalEdgeStyle;rounded=0;orthogonalLoop=1;jettySize=auto;html=1;exitX=0;exitY=0.5;exitDx=0;exitDy=0;" parent="1" source="QmPhXtLcvz4O44ZYZ-wm-46" target="QmPhXtLcvz4O44ZYZ-wm-43" edge="1">
          <mxGeometry relative="1" as="geometry">
            <mxPoint x="185" y="920" as="sourcePoint" />
            <Array as="points">
              <mxPoint x="130" y="905" />
            </Array>
          </mxGeometry>
        </mxCell>
        <mxCell id="QmPhXtLcvz4O44ZYZ-wm-45" value="Yes" style="edgeLabel;html=1;align=center;verticalAlign=middle;resizable=0;points=[];" parent="QmPhXtLcvz4O44ZYZ-wm-44" vertex="1" connectable="0">
          <mxGeometry x="-0.4462" y="4" relative="1" as="geometry">
            <mxPoint as="offset" />
          </mxGeometry>
        </mxCell>
        <mxCell id="QmPhXtLcvz4O44ZYZ-wm-46" value="input = Stop？" style="rhombus;whiteSpace=wrap;html=1;" parent="1" vertex="1">
          <mxGeometry x="190" y="880" width="110" height="50" as="geometry" />
        </mxCell>
        <mxCell id="QmPhXtLcvz4O44ZYZ-wm-47" style="edgeStyle=orthogonalEdgeStyle;rounded=0;orthogonalLoop=1;jettySize=auto;html=1;exitX=0;exitY=0.5;exitDx=0;exitDy=0;entryX=1;entryY=0.5;entryDx=0;entryDy=0;" parent="1" source="QmPhXtLcvz4O44ZYZ-wm-70" target="QmPhXtLcvz4O44ZYZ-wm-75" edge="1">
          <mxGeometry relative="1" as="geometry">
            <mxPoint x="280" y="1040" as="sourcePoint" />
            <mxPoint x="360" y="1165" as="targetPoint" />
          </mxGeometry>
        </mxCell>
        <mxCell id="QmPhXtLcvz4O44ZYZ-wm-72" value="Yes" style="edgeLabel;html=1;align=center;verticalAlign=middle;resizable=0;points=[];" parent="QmPhXtLcvz4O44ZYZ-wm-47" vertex="1" connectable="0">
          <mxGeometry x="-0.0031" y="-3" relative="1" as="geometry">
            <mxPoint as="offset" />
          </mxGeometry>
        </mxCell>
        <mxCell id="QmPhXtLcvz4O44ZYZ-wm-51" value="" style="edgeStyle=orthogonalEdgeStyle;rounded=0;orthogonalLoop=1;jettySize=auto;html=1;" parent="1" source="QmPhXtLcvz4O44ZYZ-wm-53" target="QmPhXtLcvz4O44ZYZ-wm-55" edge="1">
          <mxGeometry relative="1" as="geometry">
            <Array as="points">
              <mxPoint x="340" y="595" />
              <mxPoint x="340" y="595" />
            </Array>
          </mxGeometry>
        </mxCell>
        <mxCell id="QmPhXtLcvz4O44ZYZ-wm-52" value="No" style="edgeLabel;html=1;align=center;verticalAlign=middle;resizable=0;points=[];" parent="QmPhXtLcvz4O44ZYZ-wm-51" vertex="1" connectable="0">
          <mxGeometry x="0.1447" y="-1" relative="1" as="geometry">
            <mxPoint as="offset" />
          </mxGeometry>
        </mxCell>
        <mxCell id="QmPhXtLcvz4O44ZYZ-wm-53" value="finish_read?" style="rhombus;whiteSpace=wrap;html=1;" parent="1" vertex="1">
          <mxGeometry x="195" y="565" width="90" height="60" as="geometry" />
        </mxCell>
        <mxCell id="QmPhXtLcvz4O44ZYZ-wm-54" style="edgeStyle=orthogonalEdgeStyle;rounded=0;orthogonalLoop=1;jettySize=auto;html=1;entryX=0.5;entryY=0;entryDx=0;entryDy=0;" parent="1" source="QmPhXtLcvz4O44ZYZ-wm-55" target="QmPhXtLcvz4O44ZYZ-wm-53" edge="1">
          <mxGeometry relative="1" as="geometry">
            <Array as="points">
              <mxPoint x="390" y="545" />
              <mxPoint x="240" y="545" />
            </Array>
          </mxGeometry>
        </mxCell>
        <mxCell id="QmPhXtLcvz4O44ZYZ-wm-55" value="question add key&lt;br&gt;question_type add label" style="rounded=0;whiteSpace=wrap;html=1;" parent="1" vertex="1">
          <mxGeometry x="340" y="570" width="100" height="50" as="geometry" />
        </mxCell>
        <mxCell id="QmPhXtLcvz4O44ZYZ-wm-57" style="edgeStyle=orthogonalEdgeStyle;rounded=0;orthogonalLoop=1;jettySize=auto;html=1;exitX=0.5;exitY=1;exitDx=0;exitDy=0;" parent="1" source="QmPhXtLcvz4O44ZYZ-wm-53" edge="1">
          <mxGeometry relative="1" as="geometry">
            <mxPoint x="240" y="660" as="targetPoint" />
            <mxPoint x="240" y="630" as="sourcePoint" />
            <Array as="points" />
          </mxGeometry>
        </mxCell>
        <mxCell id="QmPhXtLcvz4O44ZYZ-wm-58" value="Yes" style="edgeLabel;html=1;align=center;verticalAlign=middle;resizable=0;points=[];" parent="QmPhXtLcvz4O44ZYZ-wm-57" vertex="1" connectable="0">
          <mxGeometry x="-0.1795" y="1" relative="1" as="geometry">
            <mxPoint as="offset" />
          </mxGeometry>
        </mxCell>
        <mxCell id="QmPhXtLcvz4O44ZYZ-wm-62" value="" style="edgeStyle=orthogonalEdgeStyle;rounded=0;orthogonalLoop=1;jettySize=auto;html=1;" parent="1" source="QmPhXtLcvz4O44ZYZ-wm-59" target="QmPhXtLcvz4O44ZYZ-wm-61" edge="1">
          <mxGeometry relative="1" as="geometry">
            <Array as="points">
              <mxPoint x="240" y="730" />
              <mxPoint x="240" y="730" />
            </Array>
          </mxGeometry>
        </mxCell>
        <mxCell id="QmPhXtLcvz4O44ZYZ-wm-59" value="use dataset &lt;br&gt;divide data by&lt;br&gt;train_test_split&lt;br&gt;" style="rounded=0;whiteSpace=wrap;html=1;" parent="1" vertex="1">
          <mxGeometry x="195" y="660" width="95" height="50" as="geometry" />
        </mxCell>
        <mxCell id="QmPhXtLcvz4O44ZYZ-wm-64" value="" style="edgeStyle=orthogonalEdgeStyle;rounded=0;orthogonalLoop=1;jettySize=auto;html=1;" parent="1" source="QmPhXtLcvz4O44ZYZ-wm-61" target="QmPhXtLcvz4O44ZYZ-wm-63" edge="1">
          <mxGeometry relative="1" as="geometry">
            <Array as="points">
              <mxPoint x="243" y="800" />
              <mxPoint x="243" y="800" />
            </Array>
          </mxGeometry>
        </mxCell>
        <mxCell id="QmPhXtLcvz4O44ZYZ-wm-61" value="use data to fit TfidfTransformer" style="rounded=0;whiteSpace=wrap;html=1;" parent="1" vertex="1">
          <mxGeometry x="185" y="740" width="110" height="40" as="geometry" />
        </mxCell>
        <mxCell id="QmPhXtLcvz4O44ZYZ-wm-65" value="" style="edgeStyle=orthogonalEdgeStyle;rounded=0;orthogonalLoop=1;jettySize=auto;html=1;" parent="1" source="QmPhXtLcvz4O44ZYZ-wm-63" target="QmPhXtLcvz4O44ZYZ-wm-46" edge="1">
          <mxGeometry relative="1" as="geometry">
            <Array as="points">
              <mxPoint x="245" y="860" />
              <mxPoint x="245" y="860" />
            </Array>
          </mxGeometry>
        </mxCell>
        <mxCell id="QmPhXtLcvz4O44ZYZ-wm-63" value="Use Logistic regression to build classifier" style="rounded=0;whiteSpace=wrap;html=1;" parent="1" vertex="1">
          <mxGeometry x="192.5" y="800" width="100" height="50" as="geometry" />
        </mxCell>
        <mxCell id="QmPhXtLcvz4O44ZYZ-wm-68" value="" style="edgeStyle=orthogonalEdgeStyle;rounded=0;orthogonalLoop=1;jettySize=auto;html=1;" parent="1" source="QmPhXtLcvz4O44ZYZ-wm-66" target="QmPhXtLcvz4O44ZYZ-wm-67" edge="1">
          <mxGeometry relative="1" as="geometry" />
        </mxCell>
        <mxCell id="QmPhXtLcvz4O44ZYZ-wm-66" value="translate input&lt;br&gt;and check speller" style="rounded=0;whiteSpace=wrap;html=1;" parent="1" vertex="1">
          <mxGeometry x="400" y="1010" width="100" height="40" as="geometry" />
        </mxCell>
        <mxCell id="QmPhXtLcvz4O44ZYZ-wm-71" value="" style="edgeStyle=orthogonalEdgeStyle;rounded=0;orthogonalLoop=1;jettySize=auto;html=1;" parent="1" source="QmPhXtLcvz4O44ZYZ-wm-67" target="QmPhXtLcvz4O44ZYZ-wm-70" edge="1">
          <mxGeometry relative="1" as="geometry" />
        </mxCell>
        <mxCell id="QmPhXtLcvz4O44ZYZ-wm-67" value="Normalize&amp;nbsp; input&lt;br&gt;（lower, stemmer and stop_word）" style="rounded=0;whiteSpace=wrap;html=1;" parent="1" vertex="1">
          <mxGeometry x="390" y="1070" width="120" height="50" as="geometry" />
        </mxCell>
        <mxCell id="QmPhXtLcvz4O44ZYZ-wm-79" value="" style="edgeStyle=orthogonalEdgeStyle;rounded=0;orthogonalLoop=1;jettySize=auto;html=1;" parent="1" source="QmPhXtLcvz4O44ZYZ-wm-69" target="QmPhXtLcvz4O44ZYZ-wm-78" edge="1">
          <mxGeometry relative="1" as="geometry" />
        </mxCell>
        <mxCell id="QmPhXtLcvz4O44ZYZ-wm-69" value="Use classifier to modify question" style="rounded=0;whiteSpace=wrap;html=1;" parent="1" vertex="1">
          <mxGeometry x="405" y="1240" width="90" height="40" as="geometry" />
        </mxCell>
        <mxCell id="QmPhXtLcvz4O44ZYZ-wm-73" value="" style="edgeStyle=orthogonalEdgeStyle;rounded=0;orthogonalLoop=1;jettySize=auto;html=1;" parent="1" source="QmPhXtLcvz4O44ZYZ-wm-70" target="QmPhXtLcvz4O44ZYZ-wm-69" edge="1">
          <mxGeometry relative="1" as="geometry">
            <Array as="points">
              <mxPoint x="450" y="1230" />
              <mxPoint x="450" y="1230" />
            </Array>
          </mxGeometry>
        </mxCell>
        <mxCell id="QmPhXtLcvz4O44ZYZ-wm-74" value="No" style="edgeLabel;html=1;align=center;verticalAlign=middle;resizable=0;points=[];" parent="QmPhXtLcvz4O44ZYZ-wm-73" vertex="1" connectable="0">
          <mxGeometry x="0.2164" y="2" relative="1" as="geometry">
            <mxPoint as="offset" />
          </mxGeometry>
        </mxCell>
        <mxCell id="QmPhXtLcvz4O44ZYZ-wm-70" value="input == null ?" style="rhombus;whiteSpace=wrap;html=1;" parent="1" vertex="1">
          <mxGeometry x="400" y="1140" width="100" height="30" as="geometry" />
        </mxCell>
        <mxCell id="QmPhXtLcvz4O44ZYZ-wm-77" style="edgeStyle=orthogonalEdgeStyle;rounded=0;orthogonalLoop=1;jettySize=auto;html=1;exitX=0;exitY=0.5;exitDx=0;exitDy=0;entryX=0.5;entryY=1;entryDx=0;entryDy=0;" parent="1" source="QmPhXtLcvz4O44ZYZ-wm-75" target="QmPhXtLcvz4O44ZYZ-wm-46" edge="1">
          <mxGeometry relative="1" as="geometry" />
        </mxCell>
        <mxCell id="QmPhXtLcvz4O44ZYZ-wm-75" value="Corresponding response" style="rounded=0;whiteSpace=wrap;html=1;" parent="1" vertex="1">
          <mxGeometry x="270" y="1135" width="90" height="40" as="geometry" />
        </mxCell>
        <mxCell id="QmPhXtLcvz4O44ZYZ-wm-82" value="" style="edgeStyle=orthogonalEdgeStyle;rounded=0;orthogonalLoop=1;jettySize=auto;html=1;" parent="1" source="QmPhXtLcvz4O44ZYZ-wm-78" target="QmPhXtLcvz4O44ZYZ-wm-81" edge="1">
          <mxGeometry relative="1" as="geometry">
            <Array as="points">
              <mxPoint x="450" y="1400" />
              <mxPoint x="450" y="1400" />
            </Array>
          </mxGeometry>
        </mxCell>
        <mxCell id="QmPhXtLcvz4O44ZYZ-wm-83" value="Yes" style="edgeLabel;html=1;align=center;verticalAlign=middle;resizable=0;points=[];" parent="QmPhXtLcvz4O44ZYZ-wm-82" vertex="1" connectable="0">
          <mxGeometry x="-0.057" y="4" relative="1" as="geometry">
            <mxPoint y="1" as="offset" />
          </mxGeometry>
        </mxCell>
        <mxCell id="QmPhXtLcvz4O44ZYZ-wm-100" style="edgeStyle=orthogonalEdgeStyle;rounded=0;orthogonalLoop=1;jettySize=auto;html=1;exitX=1;exitY=0.5;exitDx=0;exitDy=0;" parent="1" source="QmPhXtLcvz4O44ZYZ-wm-78" target="QmPhXtLcvz4O44ZYZ-wm-99" edge="1">
          <mxGeometry relative="1" as="geometry">
            <Array as="points">
              <mxPoint x="540" y="1335" />
              <mxPoint x="540" y="1335" />
            </Array>
          </mxGeometry>
        </mxCell>
        <mxCell id="QmPhXtLcvz4O44ZYZ-wm-101" value="No" style="edgeLabel;html=1;align=center;verticalAlign=middle;resizable=0;points=[];" parent="QmPhXtLcvz4O44ZYZ-wm-100" vertex="1" connectable="0">
          <mxGeometry x="0.174" y="-3" relative="1" as="geometry">
            <mxPoint as="offset" />
          </mxGeometry>
        </mxCell>
        <mxCell id="QmPhXtLcvz4O44ZYZ-wm-78" value="question_type&lt;br&gt;==small_talk?" style="rhombus;whiteSpace=wrap;html=1;" parent="1" vertex="1">
          <mxGeometry x="397.5" y="1300" width="105" height="70" as="geometry" />
        </mxCell>
        <mxCell id="QmPhXtLcvz4O44ZYZ-wm-85" value="" style="edgeStyle=orthogonalEdgeStyle;rounded=0;orthogonalLoop=1;jettySize=auto;html=1;" parent="1" source="QmPhXtLcvz4O44ZYZ-wm-81" target="QmPhXtLcvz4O44ZYZ-wm-84" edge="1">
          <mxGeometry relative="1" as="geometry" />
        </mxCell>
        <mxCell id="QmPhXtLcvz4O44ZYZ-wm-81" value="Use CountVectorizer_fit&amp;nbsp;&lt;br&gt;to transform normalize input" style="rounded=0;whiteSpace=wrap;html=1;" parent="1" vertex="1">
          <mxGeometry x="390" y="1420" width="120" height="60" as="geometry" />
        </mxCell>
        <mxCell id="QmPhXtLcvz4O44ZYZ-wm-87" value="" style="edgeStyle=orthogonalEdgeStyle;rounded=0;orthogonalLoop=1;jettySize=auto;html=1;" parent="1" source="QmPhXtLcvz4O44ZYZ-wm-84" target="QmPhXtLcvz4O44ZYZ-wm-86" edge="1">
          <mxGeometry relative="1" as="geometry" />
        </mxCell>
        <mxCell id="QmPhXtLcvz4O44ZYZ-wm-84" value="Calculate the cosine similarity and return the number and subscripts" style="rounded=0;whiteSpace=wrap;html=1;" parent="1" vertex="1">
          <mxGeometry x="390" y="1500" width="120" height="60" as="geometry" />
        </mxCell>
        <mxCell id="QmPhXtLcvz4O44ZYZ-wm-90" value="" style="edgeStyle=orthogonalEdgeStyle;rounded=0;orthogonalLoop=1;jettySize=auto;html=1;" parent="1" source="QmPhXtLcvz4O44ZYZ-wm-86" target="QmPhXtLcvz4O44ZYZ-wm-88" edge="1">
          <mxGeometry relative="1" as="geometry">
            <Array as="points">
              <mxPoint x="400" y="1605" />
              <mxPoint x="400" y="1605" />
            </Array>
          </mxGeometry>
        </mxCell>
        <mxCell id="QmPhXtLcvz4O44ZYZ-wm-91" value="Yes" style="edgeLabel;html=1;align=center;verticalAlign=middle;resizable=0;points=[];" parent="QmPhXtLcvz4O44ZYZ-wm-90" vertex="1" connectable="0">
          <mxGeometry x="-0.317" relative="1" as="geometry">
            <mxPoint as="offset" />
          </mxGeometry>
        </mxCell>
        <mxCell id="QmPhXtLcvz4O44ZYZ-wm-94" value="" style="edgeStyle=orthogonalEdgeStyle;rounded=0;orthogonalLoop=1;jettySize=auto;html=1;" parent="1" source="QmPhXtLcvz4O44ZYZ-wm-86" target="QmPhXtLcvz4O44ZYZ-wm-93" edge="1">
          <mxGeometry relative="1" as="geometry">
            <Array as="points">
              <mxPoint x="450" y="1650" />
              <mxPoint x="450" y="1650" />
            </Array>
          </mxGeometry>
        </mxCell>
        <mxCell id="QmPhXtLcvz4O44ZYZ-wm-95" value="No" style="edgeLabel;html=1;align=center;verticalAlign=middle;resizable=0;points=[];" parent="QmPhXtLcvz4O44ZYZ-wm-94" vertex="1" connectable="0">
          <mxGeometry x="0.1972" y="-2" relative="1" as="geometry">
            <mxPoint as="offset" />
          </mxGeometry>
        </mxCell>
        <mxCell id="QmPhXtLcvz4O44ZYZ-wm-86" value="accuracy！=accuracy" style="rhombus;whiteSpace=wrap;html=1;" parent="1" vertex="1">
          <mxGeometry x="410" y="1580" width="80" height="50" as="geometry" />
        </mxCell>
        <mxCell id="QmPhXtLcvz4O44ZYZ-wm-92" style="edgeStyle=orthogonalEdgeStyle;rounded=0;orthogonalLoop=1;jettySize=auto;html=1;entryX=0.5;entryY=1;entryDx=0;entryDy=0;" parent="1" source="QmPhXtLcvz4O44ZYZ-wm-88" target="QmPhXtLcvz4O44ZYZ-wm-46" edge="1">
          <mxGeometry relative="1" as="geometry">
            <Array as="points">
              <mxPoint x="245" y="1605" />
            </Array>
          </mxGeometry>
        </mxCell>
        <mxCell id="QmPhXtLcvz4O44ZYZ-wm-88" value="Can‘t find&lt;br&gt;response" style="rounded=0;whiteSpace=wrap;html=1;" parent="1" vertex="1">
          <mxGeometry x="285" y="1585" width="65" height="40" as="geometry" />
        </mxCell>
        <mxCell id="QmPhXtLcvz4O44ZYZ-wm-98" style="edgeStyle=orthogonalEdgeStyle;rounded=0;orthogonalLoop=1;jettySize=auto;html=1;exitX=0;exitY=0.5;exitDx=0;exitDy=0;entryX=0.5;entryY=1;entryDx=0;entryDy=0;" parent="1" source="QmPhXtLcvz4O44ZYZ-wm-93" target="QmPhXtLcvz4O44ZYZ-wm-46" edge="1">
          <mxGeometry relative="1" as="geometry" />
        </mxCell>
        <mxCell id="QmPhXtLcvz4O44ZYZ-wm-93" value="Corresponding response" style="rounded=0;whiteSpace=wrap;html=1;" parent="1" vertex="1">
          <mxGeometry x="400" y="1670" width="100" height="40" as="geometry" />
        </mxCell>
        <mxCell id="QmPhXtLcvz4O44ZYZ-wm-103" value="" style="edgeStyle=orthogonalEdgeStyle;rounded=0;orthogonalLoop=1;jettySize=auto;html=1;" parent="1" source="QmPhXtLcvz4O44ZYZ-wm-99" target="QmPhXtLcvz4O44ZYZ-wm-102" edge="1">
          <mxGeometry relative="1" as="geometry" />
        </mxCell>
        <mxCell id="QmPhXtLcvz4O44ZYZ-wm-99" value="&lt;span&gt;Use CountVectorizer_fit&amp;nbsp;&lt;/span&gt;&lt;br&gt;&lt;span&gt;to transform normalize input&lt;/span&gt;" style="rounded=0;whiteSpace=wrap;html=1;" parent="1" vertex="1">
          <mxGeometry x="570" y="1305" width="120" height="60" as="geometry" />
        </mxCell>
        <mxCell id="QmPhXtLcvz4O44ZYZ-wm-102" value="Calculate the cosine similarity and return the number and subscripts" style="rounded=0;whiteSpace=wrap;html=1;" parent="1" vertex="1">
          <mxGeometry x="570" y="1390" width="120" height="60" as="geometry" />
        </mxCell>
        <mxCell id="QmPhXtLcvz4O44ZYZ-wm-110" value="" style="edgeStyle=orthogonalEdgeStyle;rounded=0;orthogonalLoop=1;jettySize=auto;html=1;exitX=0.5;exitY=1;exitDx=0;exitDy=0;" parent="1" source="QmPhXtLcvz4O44ZYZ-wm-102" target="QmPhXtLcvz4O44ZYZ-wm-115" edge="1">
          <mxGeometry relative="1" as="geometry">
            <mxPoint x="635" y="1450" as="sourcePoint" />
          </mxGeometry>
        </mxCell>
        <mxCell id="QmPhXtLcvz4O44ZYZ-wm-111" value="" style="edgeStyle=orthogonalEdgeStyle;rounded=0;orthogonalLoop=1;jettySize=auto;html=1;entryX=0;entryY=0.5;entryDx=0;entryDy=0;exitX=1;exitY=0.5;exitDx=0;exitDy=0;" parent="1" source="QmPhXtLcvz4O44ZYZ-wm-115" target="QmPhXtLcvz4O44ZYZ-wm-120" edge="1">
          <mxGeometry relative="1" as="geometry">
            <Array as="points">
              <mxPoint x="720" y="1505" />
              <mxPoint x="720" y="1505" />
            </Array>
            <mxPoint x="630" y="1630" as="targetPoint" />
          </mxGeometry>
        </mxCell>
        <mxCell id="QmPhXtLcvz4O44ZYZ-wm-112" value="No" style="edgeLabel;html=1;align=center;verticalAlign=middle;resizable=0;points=[];" parent="QmPhXtLcvz4O44ZYZ-wm-111" vertex="1" connectable="0">
          <mxGeometry x="-0.317" relative="1" as="geometry">
            <mxPoint as="offset" />
          </mxGeometry>
        </mxCell>
        <mxCell id="QmPhXtLcvz4O44ZYZ-wm-113" value="" style="edgeStyle=orthogonalEdgeStyle;rounded=0;orthogonalLoop=1;jettySize=auto;html=1;exitX=0.5;exitY=1;exitDx=0;exitDy=0;entryX=0.5;entryY=0;entryDx=0;entryDy=0;" parent="1" source="QmPhXtLcvz4O44ZYZ-wm-115" target="QmPhXtLcvz4O44ZYZ-wm-117" edge="1">
          <mxGeometry relative="1" as="geometry">
            <Array as="points">
              <mxPoint x="630" y="1560" />
              <mxPoint x="630" y="1560" />
            </Array>
          </mxGeometry>
        </mxCell>
        <mxCell id="QmPhXtLcvz4O44ZYZ-wm-114" value="Yes" style="edgeLabel;html=1;align=center;verticalAlign=middle;resizable=0;points=[];" parent="QmPhXtLcvz4O44ZYZ-wm-113" vertex="1" connectable="0">
          <mxGeometry x="0.1972" y="-2" relative="1" as="geometry">
            <mxPoint as="offset" />
          </mxGeometry>
        </mxCell>
        <mxCell id="QmPhXtLcvz4O44ZYZ-wm-115" value="accuracy！=accuracy" style="rhombus;whiteSpace=wrap;html=1;" parent="1" vertex="1">
          <mxGeometry x="590" y="1480" width="80" height="50" as="geometry" />
        </mxCell>
        <mxCell id="QmPhXtLcvz4O44ZYZ-wm-124" style="edgeStyle=orthogonalEdgeStyle;rounded=0;orthogonalLoop=1;jettySize=auto;html=1;entryX=0.5;entryY=1;entryDx=0;entryDy=0;" parent="1" source="QmPhXtLcvz4O44ZYZ-wm-116" target="QmPhXtLcvz4O44ZYZ-wm-46" edge="1">
          <mxGeometry relative="1" as="geometry">
            <Array as="points">
              <mxPoint x="796" y="1770" />
              <mxPoint x="245" y="1770" />
            </Array>
          </mxGeometry>
        </mxCell>
        <mxCell id="QmPhXtLcvz4O44ZYZ-wm-116" value="&lt;span&gt;Corresponding response&lt;/span&gt;" style="rounded=0;whiteSpace=wrap;html=1;" parent="1" vertex="1">
          <mxGeometry x="753.75" y="1570" width="85" height="40" as="geometry" />
        </mxCell>
        <mxCell id="QmPhXtLcvz4O44ZYZ-wm-119" style="edgeStyle=orthogonalEdgeStyle;rounded=0;orthogonalLoop=1;jettySize=auto;html=1;entryX=0.5;entryY=1;entryDx=0;entryDy=0;" parent="1" source="QmPhXtLcvz4O44ZYZ-wm-117" target="QmPhXtLcvz4O44ZYZ-wm-46" edge="1">
          <mxGeometry relative="1" as="geometry">
            <Array as="points">
              <mxPoint x="630" y="1740" />
              <mxPoint x="245" y="1740" />
            </Array>
          </mxGeometry>
        </mxCell>
        <mxCell id="QmPhXtLcvz4O44ZYZ-wm-117" value="&lt;span&gt;Can‘t find&lt;br&gt;response&lt;/span&gt;" style="rounded=0;whiteSpace=wrap;html=1;" parent="1" vertex="1">
          <mxGeometry x="600" y="1610" width="60" height="40" as="geometry" />
        </mxCell>
        <mxCell id="QmPhXtLcvz4O44ZYZ-wm-121" value="" style="edgeStyle=orthogonalEdgeStyle;rounded=0;orthogonalLoop=1;jettySize=auto;html=1;" parent="1" source="QmPhXtLcvz4O44ZYZ-wm-120" target="QmPhXtLcvz4O44ZYZ-wm-116" edge="1">
          <mxGeometry relative="1" as="geometry">
            <Array as="points">
              <mxPoint x="796" y="1530" />
              <mxPoint x="796" y="1530" />
            </Array>
          </mxGeometry>
        </mxCell>
        <mxCell id="QmPhXtLcvz4O44ZYZ-wm-123" value="No" style="edgeLabel;html=1;align=center;verticalAlign=middle;resizable=0;points=[];" parent="QmPhXtLcvz4O44ZYZ-wm-121" vertex="1" connectable="0">
          <mxGeometry x="-0.1508" y="-1" relative="1" as="geometry">
            <mxPoint y="1" as="offset" />
          </mxGeometry>
        </mxCell>
        <mxCell id="QmPhXtLcvz4O44ZYZ-wm-126" style="edgeStyle=orthogonalEdgeStyle;rounded=0;orthogonalLoop=1;jettySize=auto;html=1;exitX=0.5;exitY=0;exitDx=0;exitDy=0;entryX=0.5;entryY=1;entryDx=0;entryDy=0;" parent="1" source="QmPhXtLcvz4O44ZYZ-wm-120" target="QmPhXtLcvz4O44ZYZ-wm-125" edge="1">
          <mxGeometry relative="1" as="geometry">
            <Array as="points">
              <mxPoint x="796" y="1450" />
              <mxPoint x="796" y="1450" />
            </Array>
          </mxGeometry>
        </mxCell>
        <mxCell id="QmPhXtLcvz4O44ZYZ-wm-127" value="Yes" style="edgeLabel;html=1;align=center;verticalAlign=middle;resizable=0;points=[];" parent="QmPhXtLcvz4O44ZYZ-wm-126" vertex="1" connectable="0">
          <mxGeometry x="0.05" relative="1" as="geometry">
            <mxPoint as="offset" />
          </mxGeometry>
        </mxCell>
        <mxCell id="QmPhXtLcvz4O44ZYZ-wm-120" value="Is ask name？" style="rhombus;whiteSpace=wrap;html=1;" parent="1" vertex="1">
          <mxGeometry x="750" y="1482.5" width="92.5" height="45" as="geometry" />
        </mxCell>
        <mxCell id="QmPhXtLcvz4O44ZYZ-wm-130" value="" style="edgeStyle=orthogonalEdgeStyle;rounded=0;orthogonalLoop=1;jettySize=auto;html=1;entryX=0.5;entryY=1;entryDx=0;entryDy=0;" parent="1" source="QmPhXtLcvz4O44ZYZ-wm-125" target="QmPhXtLcvz4O44ZYZ-wm-137" edge="1">
          <mxGeometry relative="1" as="geometry">
            <mxPoint x="796.3000000000002" y="1290" as="targetPoint" />
            <Array as="points" />
          </mxGeometry>
        </mxCell>
        <mxCell id="QmPhXtLcvz4O44ZYZ-wm-131" value="Save name" style="edgeLabel;html=1;align=center;verticalAlign=middle;resizable=0;points=[];" parent="QmPhXtLcvz4O44ZYZ-wm-130" vertex="1" connectable="0">
          <mxGeometry x="0.086" y="4" relative="1" as="geometry">
            <mxPoint as="offset" />
          </mxGeometry>
        </mxCell>
        <mxCell id="QmPhXtLcvz4O44ZYZ-wm-132" style="edgeStyle=orthogonalEdgeStyle;rounded=0;orthogonalLoop=1;jettySize=auto;html=1;exitX=1;exitY=0.5;exitDx=0;exitDy=0;entryX=0;entryY=0.5;entryDx=0;entryDy=0;" parent="1" source="QmPhXtLcvz4O44ZYZ-wm-125" edge="1">
          <mxGeometry relative="1" as="geometry">
            <mxPoint x="930" y="1390" as="targetPoint" />
            <Array as="points">
              <mxPoint x="930" y="1390" />
              <mxPoint x="930" y="1390" />
            </Array>
          </mxGeometry>
        </mxCell>
        <mxCell id="QmPhXtLcvz4O44ZYZ-wm-135" value="Ask name" style="edgeLabel;html=1;align=center;verticalAlign=middle;resizable=0;points=[];" parent="QmPhXtLcvz4O44ZYZ-wm-132" vertex="1" connectable="0">
          <mxGeometry x="-0.0931" y="-1" relative="1" as="geometry">
            <mxPoint as="offset" />
          </mxGeometry>
        </mxCell>
        <mxCell id="QmPhXtLcvz4O44ZYZ-wm-125" value="Save name &lt;br&gt;or ask name?" style="rhombus;whiteSpace=wrap;html=1;" parent="1" vertex="1">
          <mxGeometry x="745.63" y="1360" width="101.25" height="60" as="geometry" />
        </mxCell>
        <mxCell id="QmPhXtLcvz4O44ZYZ-wm-148" value="" style="edgeStyle=orthogonalEdgeStyle;rounded=0;orthogonalLoop=1;jettySize=auto;html=1;" parent="1" source="QmPhXtLcvz4O44ZYZ-wm-136" target="QmPhXtLcvz4O44ZYZ-wm-146" edge="1">
          <mxGeometry relative="1" as="geometry" />
        </mxCell>
        <mxCell id="QmPhXtLcvz4O44ZYZ-wm-149" value="No" style="edgeLabel;html=1;align=center;verticalAlign=middle;resizable=0;points=[];" parent="QmPhXtLcvz4O44ZYZ-wm-148" vertex="1" connectable="0">
          <mxGeometry x="-0.2381" y="1" relative="1" as="geometry">
            <mxPoint as="offset" />
          </mxGeometry>
        </mxCell>
        <mxCell id="QmPhXtLcvz4O44ZYZ-wm-150" value="" style="edgeStyle=orthogonalEdgeStyle;rounded=0;orthogonalLoop=1;jettySize=auto;html=1;" parent="1" source="QmPhXtLcvz4O44ZYZ-wm-136" target="QmPhXtLcvz4O44ZYZ-wm-147" edge="1">
          <mxGeometry relative="1" as="geometry">
            <Array as="points">
              <mxPoint x="980" y="1440" />
              <mxPoint x="980" y="1440" />
            </Array>
          </mxGeometry>
        </mxCell>
        <mxCell id="QmPhXtLcvz4O44ZYZ-wm-151" value="Yes" style="edgeLabel;html=1;align=center;verticalAlign=middle;resizable=0;points=[];" parent="QmPhXtLcvz4O44ZYZ-wm-150" vertex="1" connectable="0">
          <mxGeometry x="0.1069" y="-2" relative="1" as="geometry">
            <mxPoint as="offset" />
          </mxGeometry>
        </mxCell>
        <mxCell id="QmPhXtLcvz4O44ZYZ-wm-136" value="Whether&lt;br&gt;have name?" style="rhombus;whiteSpace=wrap;html=1;" parent="1" vertex="1">
          <mxGeometry x="930" y="1365" width="100" height="50" as="geometry" />
        </mxCell>
        <mxCell id="QmPhXtLcvz4O44ZYZ-wm-141" style="edgeStyle=orthogonalEdgeStyle;rounded=0;orthogonalLoop=1;jettySize=auto;html=1;exitX=1;exitY=0.5;exitDx=0;exitDy=0;entryX=0;entryY=0.5;entryDx=0;entryDy=0;" parent="1" source="QmPhXtLcvz4O44ZYZ-wm-137" target="QmPhXtLcvz4O44ZYZ-wm-138" edge="1">
          <mxGeometry relative="1" as="geometry">
            <Array as="points">
              <mxPoint x="860" y="1265" />
              <mxPoint x="860" y="1265" />
            </Array>
          </mxGeometry>
        </mxCell>
        <mxCell id="QmPhXtLcvz4O44ZYZ-wm-145" value="Yes" style="edgeLabel;html=1;align=center;verticalAlign=middle;resizable=0;points=[];" parent="QmPhXtLcvz4O44ZYZ-wm-141" vertex="1" connectable="0">
          <mxGeometry x="0.1027" relative="1" as="geometry">
            <mxPoint as="offset" />
          </mxGeometry>
        </mxCell>
        <mxCell id="QmPhXtLcvz4O44ZYZ-wm-142" style="edgeStyle=orthogonalEdgeStyle;rounded=0;orthogonalLoop=1;jettySize=auto;html=1;exitX=0.5;exitY=0;exitDx=0;exitDy=0;entryX=0;entryY=0.5;entryDx=0;entryDy=0;" parent="1" source="QmPhXtLcvz4O44ZYZ-wm-137" target="QmPhXtLcvz4O44ZYZ-wm-140" edge="1">
          <mxGeometry relative="1" as="geometry" />
        </mxCell>
        <mxCell id="QmPhXtLcvz4O44ZYZ-wm-144" value="No" style="edgeLabel;html=1;align=center;verticalAlign=middle;resizable=0;points=[];" parent="QmPhXtLcvz4O44ZYZ-wm-142" vertex="1" connectable="0">
          <mxGeometry x="-0.1309" y="-3" relative="1" as="geometry">
            <mxPoint as="offset" />
          </mxGeometry>
        </mxCell>
        <mxCell id="QmPhXtLcvz4O44ZYZ-wm-137" value="Is it possible to get names" style="rhombus;whiteSpace=wrap;html=1;" parent="1" vertex="1">
          <mxGeometry x="750" y="1235" width="93.75" height="60" as="geometry" />
        </mxCell>
        <mxCell id="QmPhXtLcvz4O44ZYZ-wm-138" value="Save name and response" style="rounded=0;whiteSpace=wrap;html=1;" parent="1" vertex="1">
          <mxGeometry x="880" y="1245" width="80" height="40" as="geometry" />
        </mxCell>
        <mxCell id="QmPhXtLcvz4O44ZYZ-wm-140" value="Can‘t find&lt;br&gt;name response" style="rounded=0;whiteSpace=wrap;html=1;" parent="1" vertex="1">
          <mxGeometry x="887.5" y="1170" width="65" height="40" as="geometry" />
        </mxCell>
        <mxCell id="QmPhXtLcvz4O44ZYZ-wm-143" style="edgeStyle=orthogonalEdgeStyle;rounded=0;orthogonalLoop=1;jettySize=auto;html=1;exitX=0.5;exitY=1;exitDx=0;exitDy=0;" parent="1" source="QmPhXtLcvz4O44ZYZ-wm-136" target="QmPhXtLcvz4O44ZYZ-wm-136" edge="1">
          <mxGeometry relative="1" as="geometry" />
        </mxCell>
        <mxCell id="QmPhXtLcvz4O44ZYZ-wm-153" style="edgeStyle=orthogonalEdgeStyle;rounded=0;orthogonalLoop=1;jettySize=auto;html=1;exitX=0.5;exitY=1;exitDx=0;exitDy=0;" parent="1" source="QmPhXtLcvz4O44ZYZ-wm-146" target="QmPhXtLcvz4O44ZYZ-wm-46" edge="1">
          <mxGeometry relative="1" as="geometry">
            <Array as="points">
              <mxPoint x="1133" y="1830" />
              <mxPoint x="245" y="1830" />
            </Array>
          </mxGeometry>
        </mxCell>
        <mxCell id="QmPhXtLcvz4O44ZYZ-wm-146" value="Can‘t find&lt;br&gt;name response" style="rounded=0;whiteSpace=wrap;html=1;" parent="1" vertex="1">
          <mxGeometry x="1100" y="1370" width="65" height="40" as="geometry" />
        </mxCell>
        <mxCell id="QmPhXtLcvz4O44ZYZ-wm-152" style="edgeStyle=orthogonalEdgeStyle;rounded=0;orthogonalLoop=1;jettySize=auto;html=1;exitX=0.5;exitY=1;exitDx=0;exitDy=0;entryX=0.5;entryY=1;entryDx=0;entryDy=0;" parent="1" source="QmPhXtLcvz4O44ZYZ-wm-147" target="QmPhXtLcvz4O44ZYZ-wm-46" edge="1">
          <mxGeometry relative="1" as="geometry">
            <Array as="points">
              <mxPoint x="980" y="1800" />
              <mxPoint x="245" y="1800" />
            </Array>
          </mxGeometry>
        </mxCell>
        <mxCell id="QmPhXtLcvz4O44ZYZ-wm-147" value="Corresponding response" style="rounded=0;whiteSpace=wrap;html=1;" parent="1" vertex="1">
          <mxGeometry x="940" y="1450" width="80" height="40" as="geometry" />
        </mxCell>
      </root>
    </mxGraphModel>
  </diagram>
</mxfile>
